<svg xmlns="http://www.w3.org/2000/svg" width="29" height="33.352" viewBox="0 0 29 33.352">
  <g id="Group_749" data-name="Group 749" transform="translate(-770.001 -154)">
    <path id="Path_27252" data-name="Path 27252" d="M17143.5-10379.812h4.063l2.313-1.625,1.563,1.063,1.25.563h3.813l1.188-.562v8.688l-1.187,3.188-2.187,2-3.812,2.063h-.625l-2.812-.937-2.937-2-1.625-2.062-.562-2.875v-2.062l-.562-1.75,1.125-2.187Z" transform="translate(-16359 10549)" fill="#fff"/>
    <path id="Path_27253" data-name="Path 27253" d="M17132.063-10373.312l8.875,4.125-1,2.125-3.187-1.375-1.625,3.313,1.938,1.063-1.125,1.875-6.437-2.937.875-1.937,1.688.813,2-3.687-3.312-1.562.75-1.812Z" transform="translate(-16359 10549)" fill="#fff"/>
    <path id="Path_27254" data-name="Path 27254" d="M17141.375-10388.437l-4.187,9.063,4.875,2.125,4.188-9.062-1-.312.313-1.812-1.75-1.062-1.437,1.563Z" transform="translate(-16359 10549)" fill="#fff"/>
    <g id="Group_747" data-name="Group 747">
      <path id="Path_27250" data-name="Path 27250" d="M17142.332-10379.423h4.262l1.9-.952,2.313.952h3.8v6.524l-.68,2.312-3.125,2.311-2.312.544-3.4-1.5-2.766-2.312v-7.884Z" transform="translate(-16357.833 10550.28)" fill="#ffd485"/>
      <path id="Path_27251" data-name="Path 27251" d="M17133.578-10373.688l4.656,2.209,3.4-7.238-4.945-1.955Z" transform="translate(-16358.6 10550.255)" fill="#ff6498"/>
      <g id="Group_744" data-name="Group 744" transform="translate(770 154)">
        <path id="Path_27243" data-name="Path 27243" d="M313.9,193.9a.436.436,0,0,0-.393-.062c-.047.015-4.7,1.479-7.413-1.2h0a.437.437,0,0,0-.613,0,6.7,6.7,0,0,1-5.33,1.587h0a.436.436,0,0,0-.072.87,7.709,7.709,0,0,0,5.711-1.553c2.512,2.162,6.045,1.615,7.419,1.287v7.72c0,4.582-6.406,7.035-7.419,7.394-1.013-.359-7.419-2.812-7.419-7.394v-3.928a.436.436,0,0,0-.873,0v3.928c0,5.586,7.825,8.164,8.158,8.271a.434.434,0,0,0,.267,0c.333-.107,8.158-2.685,8.158-8.271v-8.291a.437.437,0,0,0-.18-.353Z" transform="translate(-285.079 -179.462)" fill="#002c3e"/>
        <path id="Path_27244" data-name="Path 27244" d="M338.857,251.147a.437.437,0,0,0,.162.031.426.426,0,0,0,.161-.031c1.919-.763,6.382-2.914,6.382-6.4v-6.176a.437.437,0,0,0-.144-.325.443.443,0,0,0-.337-.11,12.006,12.006,0,0,1-1.264.067,8.412,8.412,0,0,1-4.569-1.211.437.437,0,0,0-.466,0,8.412,8.412,0,0,1-4.569,1.211,11.957,11.957,0,0,1-1.261-.067.444.444,0,0,0-.338.11.437.437,0,0,0-.144.325v6.176c0,3.464,4.467,5.63,6.388,6.4Zm-5.514-12.1a9.789,9.789,0,0,0,5.673-1.174,9.8,9.8,0,0,0,5.673,1.174v5.7c0,2.924-4.144,4.9-5.67,5.522-1.527-.632-5.676-2.618-5.676-5.522Z" transform="translate(-318.307 -221.671)" fill="#002c3e"/>
        <path id="Path_27242" data-name="Path 27242" d="M82.244,25.977,80.363,25.1,87.6,9.5A.523.523,0,0,0,87.35,8.8l-.574-.269.33-1.711h0a.522.522,0,0,0-.29-.574l-.467-.219,2.283-4.794h0A.519.519,0,0,0,87.7.788l-2.288,4.8-.475-.223a.514.514,0,0,0-.623.144L83.219,6.868,82.645,6.6h0a.518.518,0,0,0-.69.252l-7.237,15.6-1.881-.883a.518.518,0,0,0-.69.252l-.878,1.891a.523.523,0,0,0,.251.693l2.822,1.323-1.315,2.836L71.616,27.9a.518.518,0,0,0-.69.253l-.877,1.891a.523.523,0,0,0,.25.693l6.585,3.086h0a.512.512,0,0,0,.219.049.519.519,0,0,0,.471-.3l.877-1.891h0a.522.522,0,0,0-.251-.693l-1.411-.662,1.315-2.836,2.822,1.324a.518.518,0,0,0,.69-.252l.877-1.891a.522.522,0,0,0-.251-.694Zm.467-8.414L78.948,15.8l.439-.945,3.763,1.763ZM84.862,6.486l1.148.537-.2,1.056-1.618-.758ZM82.677,7.764,86.44,9.527l-2.851,6.145-3.763-1.764.439-.945,1.413.662.439-.946L80.7,12.018l.877-1.891,1.411.661.439-.946-1.412-.661Zm-6.36,13.708,1.411.661.439-.946-1.411-.661.878-1.891,1.411.661.439-.945-1.412-.661.439-.946,3.763,1.763-2.851,6.145L75.657,22.89Zm.537,11.186-5.644-2.645.439-.946,5.644,2.646Zm-1-2.772L73.968,29l1.315-2.836,1.882.882ZM80.9,27.647,72.43,23.679l.438-.945L81.335,26.7Z" transform="translate(-70 -0.521)" fill="#002c3e"/>
        <path id="Path_27249" data-name="Path 27249" d="M259.974,177.438h2.49a.1.1,0,0,0,.1-.1v-.5a.1.1,0,0,0-.093-.1c-.2-.011-.644-.119-.644-.862v-3.7a.1.1,0,0,0-.1-.1h-1.753a.1.1,0,0,0-.1.1v.5a.1.1,0,0,0,.093.1c.2.011.644.119.644.862v2.238c0,.743-.445.851-.644.862a.1.1,0,0,0-.093.1v.5a.1.1,0,0,0,.1.1Z" transform="translate(-240.72 -152.969)" fill="#002c3e"/>
      </g>
    </g>
  </g>
</svg>
