<svg xmlns="http://www.w3.org/2000/svg" width="30.793" height="27.355" viewBox="0 0 30.793 27.355">
  <g id="Group_771" data-name="Group 771" transform="translate(-419.707 -322.114)">
    <path id="Path_11853" data-name="Path 11853" d="M11854.578-10619.176h5.8v12.328l-2.635,1.429h-1.443l-.752-1.429-.975-1.126Z" transform="translate(-11412.404 10947.973)" fill="#ffd485"/>
    <g id="Group_742" data-name="Group 742" transform="translate(419.707 322.114)">
      <path id="Path_11854" data-name="Path 11854" d="M11846.507-10603.965l2.545-1.076,1.358-2.162v-.855h2.724l.849.855,1.33,1.357v4.672h-19l-.342-1.879v-1.348l.342-1.109.631-1.693,1.539-.855h2.5v1.621l1.258,1.4,1.734,1.076Z" transform="translate(-11834.855 10627.495)" fill="#a5dede"/>
      <g id="Group_702" data-name="Group 702" transform="translate(0 0)">
        <path id="Path_11850" data-name="Path 11850" d="M477.593,123.051h-3.634v-3.634h1.817a.908.908,0,0,0,0-1.817h-5.45a.908.908,0,1,0,0,1.817h1.817v3.634h-3.633a.908.908,0,0,0,0,1.817h.5v3.27l-.091,7.176a4.086,4.086,0,0,0,1.181,2.907,3.983,3.983,0,0,0,2.044,1.136v4.587a.908.908,0,1,0,1.817,0v-4.633a4.058,4.058,0,0,0,3.134-3.906l.091-10.538h.409a.908.908,0,0,0,0-1.817Zm-2.317,12.264a2.3,2.3,0,0,1-2.226,2.271h-.045a2.278,2.278,0,0,1-2.271-2.271V132.59h1.817a.908.908,0,0,0,0-1.817h-1.817v-1.817h1.817a.908.908,0,0,0,0-1.817h-1.817v-2.271h4.542Z" transform="translate(-447.709 -117.498)" fill="#002c3e"/>
        <path id="Path_11851" data-name="Path 11851" d="M114.744,79.4h-2.733v-.771a7.42,7.42,0,0,0,4.2-6.692V65.46a3.305,3.305,0,0,0-3.784-3.258l-.245-.105a15.09,15.09,0,0,0-10.931.175.7.7,0,0,0-.42.736l.7,6.271v2.663a7.421,7.421,0,0,0,4.2,6.692V79.4h-2.733a4.965,4.965,0,0,0-5.01,4.9v2.1a2.116,2.116,0,0,0,2.137,2.1h17.483a2.116,2.116,0,0,0,2.137-2.1v-2.1a5.011,5.011,0,0,0-5.01-4.9ZM102.272,63.393a13.829,13.829,0,0,1,9.424.035l.42.175a.756.756,0,0,0,.385.035,1.717,1.717,0,0,1,1.577.385,1.859,1.859,0,0,1,.7,1.471v1.927a2.962,2.962,0,0,1-2.067-1.752l-.07-.21a.783.783,0,0,0-.525-.42.7.7,0,0,0-.63.245,6.288,6.288,0,0,1-4.8,2.207h-3.959Zm.631,8.549V68.894h3.784a7.669,7.669,0,0,0,5.15-1.962,4.54,4.54,0,0,0,2.978,1.927v3.118a5.956,5.956,0,1,1-11.912-.035Zm3.5,8.864a.7.7,0,0,0,.7-.7v-.981a7.4,7.4,0,0,0,3.5,0v.981a.7.7,0,0,0,.7.7h1.331a3.847,3.847,0,0,1-7.568,0Zm11.912,5.606a.711.711,0,0,1-.736.7H100.134a.711.711,0,0,1-.736-.7v-2.1a3.552,3.552,0,0,1,3.574-3.5h.666a5.229,5.229,0,0,0,10.37,0h.666a3.568,3.568,0,0,1,3.644,3.5Z" transform="translate(-97.997 -61.159)" fill="#002c3e"/>
        <path id="Path_11852" data-name="Path 11852" d="M232.413,247.1a.7.7,0,1,0-1.4,0c0,.561-.631,1.051-1.4,1.051s-1.4-.49-1.4-1.051a.7.7,0,1,0-1.4,0,2.828,2.828,0,0,0,5.605,0Z" transform="translate(-218.749 -234.812)" fill="#002c3e"/>
      </g>
    </g>
  </g>
</svg>
